# xmcd
#
# Track frame offsets: 
#        150
#        17328
#        35175
#        52941
#        69780
#        85849
#        101314
#        113596
#        131287
#        146887
#        164068
#        179041
#        192114
#        205495
#
# Disc length: 2941 seconds
#
# Revision: 0
# Processed by: cddbd v1.5.2PL0 Copyright (c) Steve Scherf et al.
# Submitted via: ExactAudioCopy v1.3
#
DISCID=be0b7b0e
DTITLE=Matão e Mathias - Matão e Mathias
DYEAR=1900
DGENRE=Sertanejo
TTITLE0=A carne é fraca
TTITLE1=Imã
TTITLE2=Não dá mais
TTITLE3=Outdoor
TTITLE4=O voo do condor
TTITLE5=Cansei de namorar a solidão
TTITLE6=Catireiro safado
TTITLE7=Mais uma vez
TTITLE8=Viva o amor
TTITLE9=Obrigado Senhor
TTITLE10=Quem vai
TTITLE11=Santa Maria do Brasil
TTITLE12=Turbilhão
TTITLE13=História de Amor
EXTD=
EXTT0=
EXTT1=
EXTT2=
EXTT3=
EXTT4=
EXTT5=
EXTT6=
EXTT7=
EXTT8=
EXTT9=
EXTT10=
EXTT11=
EXTT12=
EXTT13=
PLAYORDER=
